<svg width="106" height="117" viewBox="0 0 106 117" fill="none" xmlns="http://www.w3.org/2000/svg">
<path d="M104.878 18.9177C105.385 17.6333 104.754 16.1813 103.47 15.6745L82.5408 7.41558C81.2564 6.90877 79.8044 7.53908 79.2976 8.82341C78.7908 10.1077 79.4211 11.5598 80.7054 12.0666L99.3094 19.4078L91.9681 38.0117C91.4613 39.2961 92.0916 40.7481 93.3759 41.2549C94.6603 41.7617 96.1123 41.1314 96.6191 39.8471L104.878 18.9177ZM2.55251 18L0.147679 17.3168C-0.0836163 18.1309 -0.0493853 18.9939 0.294002 19.8042C0.617617 20.5678 1.14794 21.1278 1.65961 21.5285C2.63991 22.2961 3.96146 22.796 5.29082 23.1602C8.02126 23.9082 11.9126 24.3714 16.4441 24.6483C25.5699 25.2059 37.9502 25.0409 50.4338 24.5425C62.9366 24.0433 75.6198 23.2064 85.385 22.4055C90.2668 22.0051 94.4316 21.6127 97.4873 21.2747C99.0126 21.106 100.28 20.9489 101.229 20.8089C101.701 20.7393 102.118 20.6706 102.458 20.6031C102.72 20.5513 103.167 20.4587 103.548 20.2933L102.553 18L101.557 15.7067C101.735 15.6295 101.791 15.638 101.486 15.6986C101.259 15.7435 100.933 15.7985 100.5 15.8624C99.6363 15.9897 98.4367 16.1392 96.9376 16.305C93.9446 16.6361 89.8301 17.0241 84.9763 17.4222C75.2705 18.2182 62.6577 19.0505 50.2343 19.5465C37.7916 20.0432 25.6154 20.1993 16.7491 19.6576C12.2846 19.3848 8.82097 18.9431 6.61193 18.3379C5.47155 18.0255 4.92723 17.7367 4.74231 17.5919C4.67137 17.5363 4.79425 17.6091 4.89768 17.8532C5.02088 18.1439 5.02219 18.455 4.95733 18.6832L2.55251 18Z" fill="#51AF97"/>
<path d="M42.5024 21.8391C41.8612 21.3145 40.9162 21.409 40.3916 22.0501L31.8429 32.4986C31.3183 33.1397 31.4128 34.0848 32.0539 34.6094C32.6951 35.1339 33.6401 35.0394 34.1647 34.3983L41.7636 25.1108L51.0511 32.7096C51.6922 33.2342 52.6373 33.1397 53.1619 32.4986C53.6865 31.8574 53.592 30.9124 52.9508 30.3878L42.5024 21.8391ZM28.5525 100C30.0268 100.276 30.0269 100.276 30.027 100.276C30.0271 100.275 30.0272 100.274 30.0274 100.273C30.0279 100.271 30.0285 100.268 30.0293 100.263C30.0309 100.254 30.0334 100.241 30.0366 100.224C30.0431 100.189 30.0528 100.138 30.0656 100.069C30.0912 99.9327 30.1291 99.7301 30.1785 99.4657C30.2773 98.9368 30.4221 98.1605 30.6063 97.1709C30.9746 95.1916 31.5002 92.3587 32.1292 88.9436C33.3874 82.1137 35.0599 72.9542 36.7168 63.6377C38.3735 54.3227 40.0159 44.844 41.2133 37.3782C41.8117 33.6466 42.3007 30.4076 42.6247 27.9394C42.7866 26.7063 42.9089 25.6534 42.983 24.8218C43.0531 24.0339 43.0924 23.3244 43.0451 22.8507L41.5525 23L40.06 23.1492C40.0751 23.3006 40.0675 23.7395 39.9948 24.5557C39.926 25.328 39.8096 26.3347 39.6502 27.5489C39.3317 29.9752 38.848 33.1816 38.2511 36.9031C37.0578 44.3435 35.419 53.8023 33.7632 63.1123C32.1077 72.4208 30.4364 81.5738 29.1789 88.4001C28.5502 91.8132 28.0249 94.6443 27.6569 96.6221C27.4729 97.6109 27.3282 98.3865 27.2295 98.9147C27.1802 99.1788 27.1423 99.3811 27.1168 99.5173C27.1041 99.5854 27.0944 99.637 27.0879 99.6716C27.0847 99.6889 27.0823 99.7019 27.0806 99.7106C27.0798 99.7149 27.0792 99.7182 27.0788 99.7203C27.0786 99.7214 27.0784 99.7222 27.0783 99.7228C27.0782 99.7233 27.0782 99.7236 28.5525 100Z" fill="#ECB144"/>
<path d="M30.2166 101.109C30.8293 100.19 30.581 98.9486 29.6619 98.3359L14.685 88.3513C13.7659 87.7386 12.5242 87.9869 11.9115 88.906C11.2988 89.8251 11.5471 91.0668 12.4662 91.6795L25.779 100.555L16.9038 113.868C16.2911 114.787 16.5394 116.028 17.4585 116.641C18.3776 117.254 19.6193 117.005 20.232 116.086L30.2166 101.109ZM11.5525 100L9.8884 101.109C10.4918 102.014 11.4296 102.488 12.2118 102.754C13.0291 103.033 13.9588 103.181 14.8864 103.259C16.7483 103.414 18.9473 103.308 20.9892 103.116C23.0495 102.923 25.035 102.635 26.4993 102.396C27.2333 102.276 27.8405 102.168 28.2659 102.09C28.4787 102.051 28.6462 102.019 28.7616 101.997C28.8193 101.986 28.864 101.977 28.8948 101.971C28.9102 101.968 28.9221 101.966 28.9305 101.964C28.9347 101.963 28.9379 101.963 28.9403 101.962C28.9415 101.962 28.9425 101.962 28.9432 101.961C28.9436 101.961 28.944 101.961 28.9441 101.961C28.9445 101.961 28.9447 101.961 28.5525 100C28.1603 98.0388 28.1604 98.0388 28.1605 98.0388C28.1605 98.0388 28.1605 98.0388 28.1604 98.0388C28.1602 98.0388 28.1598 98.0389 28.1592 98.039C28.158 98.0393 28.1558 98.0397 28.1528 98.0403C28.1467 98.0415 28.1371 98.0434 28.1241 98.046C28.098 98.0511 28.0582 98.0589 28.0055 98.069C27.9002 98.0893 27.7435 98.119 27.5422 98.1561C27.1395 98.2301 26.5592 98.3332 25.8557 98.4479C24.445 98.6779 22.5555 98.9519 20.6158 99.1337C18.6577 99.3173 16.7317 99.3986 15.2186 99.2725C14.4587 99.2092 13.8884 99.0999 13.5025 98.9683C13.0817 98.8248 13.1132 98.7355 13.2166 98.8906L11.5525 100Z" fill="#EBE52F"/>
<path d="M81.5188 108.712C82.4643 109.283 83.6937 108.979 84.2646 108.034L93.5683 92.6246C94.1392 91.679 93.8355 90.4496 92.8899 89.8787C91.9443 89.3078 90.7149 89.6115 90.144 90.5571L81.8741 104.254L68.1771 95.9842C67.2315 95.4133 66.0021 95.717 65.4312 96.6626C64.8603 97.6082 65.164 98.8376 66.1096 99.4085L81.5188 108.712ZM61.5525 22L59.6109 22.4797L80.6109 107.48L82.5525 107L84.4941 106.52L63.4941 21.5203L61.5525 22Z" fill="#3FA7DE"/>
<g filter="url(#filter0_g_0_1)">
<ellipse cx="50.0525" cy="12" rx="9.5" ry="8" fill="#FAF9F6" fill-opacity="0.2"/>
<path d="M50.0525 4.25C55.2031 4.25 59.3025 7.75833 59.3025 12C59.3025 16.2417 55.2031 19.75 50.0525 19.75C44.9019 19.75 40.8025 16.2417 40.8025 12C40.8025 7.75833 44.9019 4.25 50.0525 4.25Z" stroke="black" stroke-width="0.5"/>
</g>
<line x1="51.2875" y1="24.576" x2="59.2875" y2="19.576" stroke="black"/>
<path d="M51.2875 24.576C57.7657 26.1942 58.7298 24.2609 59.2875 19.576" stroke="black"/>
<ellipse cx="53.0525" cy="15" rx="3.5" ry="3" fill="#2B2521"/>
<defs>
<filter id="filter0_g_0_1" x="36.5525" y="0" width="27" height="24" filterUnits="userSpaceOnUse" color-interpolation-filters="sRGB">
<feFlood flood-opacity="0" result="BackgroundImageFix"/>
<feBlend mode="normal" in="SourceGraphic" in2="BackgroundImageFix" result="shape"/>
<feTurbulence type="fractalNoise" baseFrequency="0.99900001287460327 0.99900001287460327" numOctaves="3" seed="8721" />
<feDisplacementMap in="shape" scale="8" xChannelSelector="R" yChannelSelector="G" result="displacedImage" width="100%" height="100%" />
<feMerge result="effect1_texture_0_1">
<feMergeNode in="displacedImage"/>
</feMerge>
</filter>
</defs>
</svg>
